<?xml version="1.0" standalone="no"?>
<!DOCTYPE svg PUBLIC "-//W3C//DTD SVG 20010904//EN"
 "http://www.w3.org/TR/2001/REC-SVG-20010904/DTD/svg10.dtd">
<svg version="1.0" xmlns="http://www.w3.org/2000/svg"
 width="128.000000pt" height="128.000000pt" viewBox="0 0 128.000000 128.000000"
 preserveAspectRatio="xMidYMid meet">
<metadata>
Created by potrace 1.14, written by Peter Selinger 2001-2017
</metadata>
<g transform="translate(0.000000,128.000000) scale(0.100000,-0.100000)"
fill="#000000" stroke="none">
<path d="M510 1145 l0 -125 -125 0 -125 0 0 -125 0 -125 -125 0 -125 0 0 -130
0 -130 125 0 125 0 0 -250 0 -250 130 0 130 0 0 250 0 250 250 0 251 0 -3
-122 -3 -123 -122 -3 -123 -3 0 -124 0 -125 125 0 125 0 0 125 0 125 125 0
125 0 0 255 0 255 -125 0 -125 0 0 125 0 125 125 0 125 0 0 125 0 125 -125 0
-125 0 0 -125 0 -125 -125 0 -125 0 0 125 0 125 -130 0 -130 0 0 -125z m255
-250 l0 -120 -122 -3 -123 -3 0 126 0 126 123 -3 122 -3 0 -120z"/>
</g>
</svg>
